<svg width="40" height="40" viewBox="0 0 40 40" fill="none" xmlns="http://www.w3.org/2000/svg">
<rect width="40" height="40" rx="20" fill="#343F53"/>
<path fill-rule="evenodd" clip-rule="evenodd" d="M16.0979 11.0697C16.0872 11.1689 16.0818 14.2172 16.0818 14.3176C16.0818 15.7708 17.0155 16.9258 18.9576 17.2984L22.655 18.0064C27.4728 18.9379 30.0499 22.0677 30.0499 25.7936C30.0499 29.8549 26.6512 33.9535 20.4888 33.9535C13.4675 33.9535 9.7708 29.3023 9.95684 24.415H14.7373C14.9614 27.0232 16.7914 29.5566 20.5262 29.5566C23.2899 29.5566 25.0072 27.992 25.0072 26.129C25.0072 24.6013 23.6634 23.223 21.6092 22.8131L17.9119 22.0679C13.6916 21.211 11.1513 18.677 11.1513 14.6902L11.1507 14.3997C11.1488 13.5569 11.1437 11.1977 11.1513 11.0697H16.0979Z" fill="#FEFDFE"/>
<path fill-rule="evenodd" clip-rule="evenodd" d="M19.997 6.04655H30.0435V16.0931H25.0202V11.0698H19.997V6.04655Z" fill="#E43958"/>
</svg>
