<svg width="32" height="32" viewBox="0 0 32 32" fill="none" xmlns="http://www.w3.org/2000/svg">
<path fill-rule="evenodd" clip-rule="evenodd" d="M12.0979 7.06974C12.0872 7.16889 12.0818 10.2172 12.0818 10.3176C12.0818 11.7708 13.0155 12.9258 14.9576 13.2984L18.655 14.0064C23.4728 14.9379 26.0499 18.0677 26.0499 21.7936C26.0499 25.8549 22.6512 29.9535 16.4888 29.9535C9.46752 29.9535 5.7708 25.3023 5.95684 20.415H10.7373C10.9614 23.0232 12.7914 25.5566 16.5262 25.5566C19.2899 25.5566 21.0072 23.992 21.0072 22.129C21.0072 20.6013 19.6634 19.223 17.6092 18.8131L13.9119 18.0679C9.6916 17.211 7.15127 14.677 7.15127 10.6902L7.15069 10.3997C7.14884 9.55692 7.14366 7.19774 7.15127 7.06974H12.0979Z" fill="#FEFDFE"/>
<path fill-rule="evenodd" clip-rule="evenodd" d="M15.997 2.04655H26.0435V12.0931H21.0202V7.0698H15.997V2.04655Z" fill="#E43958"/>
</svg>
